<?xml version="1.0" encoding="utf-8"?>
<svg width="534pt" height="500pt" viewBox="0 0 534 500" version="1.1" xmlns="http://www.w3.org/2000/svg">
  <g id="surface1">
    <path style=" stroke:none;fill-rule:nonzero;fill:rgb(2.745098%,7.058824%,16.862745%);fill-opacity:1;" d="M 73.546875 0 L 460.632812 0 C 501.253906 0 534.179688 32.929688 534.179688 73.546875 L 534.179688 426.722656 C 534.179688 467.34375 501.253906 500.273438 460.632812 500.273438 L 73.546875 500.273438 C 32.929688 500.273438 0 467.34375 0 426.722656 L 0 73.546875 C 0 32.929688 32.929688 0 73.546875 0 Z M 73.546875 0 "/>
    <path style="stroke: none; fill-rule: nonzero; fill: rgb(0, 153, 246); fill-opacity: 1;" d="M 389.081 94.277 L 441.553 94.277 L 441.553 146.199 L 389.081 146.199 Z M 389.081 94.277"/>
    <path style="stroke: none; fill-rule: nonzero; fill: rgb(0, 153, 246); fill-opacity: 1;" d="M 455.563 272.949 L 508.033 272.949 L 508.033 324.86 L 455.563 324.86 Z M 455.563 272.949"/>
    <path style="stroke: none; fill-rule: nonzero; fill: rgb(242, 242, 242); fill-opacity: 1;" d="M 200.32 168.354 C 154.441 168.354 151.527 193.948 151.527 194.21 C 151.527 193.851 142.73 168.354 103.705 168.354 C 79.291 168.354 74.413 179.913 74.542 179.989 L 74.542 167.26 L 25.202 167.26 L 25.202 324.956 L 74.48 324.956 L 74.48 236.695 C 74.48 219.541 87.44 210.819 99.363 210.819 C 111.737 210.819 123.92 220.707 123.92 235.748 C 124.295 236.471 123.513 324.956 123.513 324.956 L 171.47 324.956 C 171.47 324.956 172.066 242.266 172.066 240.485 C 172.066 223.754 182.448 210.224 196.463 210.224 C 210.479 210.224 221.831 223.774 221.831 240.485 C 221.831 242.342 221.446 324.956 221.446 324.956 L 268.426 324.956 L 268.426 227.679 C 268.376 192.981 241.305 168.354 200.32 168.354 Z M 200.32 168.354"/>
    <path style="stroke: none; fill-rule: nonzero; fill: rgb(242, 242, 242); fill-opacity: 1;" d="M 443.913 246.114 C 443.913 296.559 414.108 330.507 378.694 330.507 C 361.408 330.507 352.645 324.655 342.28 313.559 L 342.28 379.036 L 294.602 379.036 L 294.602 166.478 L 342.486 166.478 L 342.486 179.169 C 352.873 168.021 361.475 161.721 378.761 161.721 C 414.108 161.721 443.913 195.97 443.913 246.114 Z M 400.517 246.114 C 400.517 222.884 387.557 206.901 369.897 206.901 C 353.455 206.901 338.797 222.884 338.797 246.114 C 338.797 269.627 353.377 285.314 369.897 285.314 C 387.624 285.314 400.517 269.627 400.517 246.114 Z M 400.517 246.114"/>
  </g>
</svg>