<svg xmlns="http://www.w3.org/2000/svg" xmlns:xlink="http://www.w3.org/1999/xlink" viewBox="0 0 55.53 84.36"><defs><style>.cls-1,.cls-2{fill:#fff;stroke-miterlimit:10;stroke-width:7px;}.cls-1{stroke:url(#未命名的渐变_60);}.cls-2{stroke:url(#未命名的渐变_60-2);}</style><linearGradient id="未命名的渐变_60" x1="17.14" y1="63.41" x2="34.46" y2="80.73" gradientUnits="userSpaceOnUse"><stop offset="0" stop-color="#004acc"/><stop offset="0.13" stop-color="#1954cd"/><stop offset="0.4" stop-color="#5b6ed0"/><stop offset="0.78" stop-color="#c298d4"/><stop offset="1" stop-color="#ffb0d6"/></linearGradient><linearGradient id="未命名的渐变_60-2" x1="4.56" y1="6.18" x2="47.04" y2="48.66" xlink:href="#未命名的渐变_60"/></defs><g id="图层_2" data-name="图层 2"><g id="图层_1-2" data-name="图层 1"><path class="cls-1" d="M25.75,63.28A8.88,8.88,0,0,0,17,72a8.66,8.66,0,0,0,2.6,6.24,8.56,8.56,0,0,0,6.14,2.6A8.88,8.88,0,0,0,34.59,72,8.57,8.57,0,0,0,32,65.88,8.68,8.68,0,0,0,25.75,63.28Z"/><path class="cls-2" d="M44.87,9.32C40.26,5.46,34.1,3.5,26.56,3.5A40,40,0,0,0,16.4,4.7,32.49,32.49,0,0,0,7.26,8.76c-3.11,2-3.76,4.47-3.76,6.2a6.66,6.66,0,0,0,2.05,4.78c2.29,2.3,5.4,2.8,8.81.84a18.88,18.88,0,0,1,5.2-2.15,25.05,25.05,0,0,1,6.19-.77c10.3,0,11.62,4.37,11.62,8.19A5,5,0,0,1,36.26,29a31.28,31.28,0,0,1-5.34,4.93,53.6,53.6,0,0,0-6.38,5.81,25,25,0,0,0-3.93,6.1A20.86,20.86,0,0,0,18.72,55,6.32,6.32,0,0,0,21,59.91a7.55,7.55,0,0,0,9.89-.09A6.37,6.37,0,0,0,33.18,55a8,8,0,0,1,1.46-4.87,33,33,0,0,1,6.21-5.93A61,61,0,0,0,46.65,39a20.07,20.07,0,0,0,3.73-5.68,19.1,19.1,0,0,0,1.65-8C52,18.69,49.62,13.3,44.87,9.32Z"/></g></g></svg>