<svg xmlns="http://www.w3.org/2000/svg" xmlns:xlink="http://www.w3.org/1999/xlink" viewBox="0 0 83.73 84.94"><defs><style>.cls-1,.cls-2{fill:#fff;stroke-miterlimit:10;stroke-width:7px;}.cls-1{stroke:url(#未命名的渐变_60);}.cls-2{stroke:url(#未命名的渐变_60-2);}</style><linearGradient id="未命名的渐变_60" x1="48.26" y1="49.47" x2="80.92" y2="82.13" gradientUnits="userSpaceOnUse"><stop offset="0" stop-color="#004acc"/><stop offset="0.13" stop-color="#1954cd"/><stop offset="0.4" stop-color="#5b6ed0"/><stop offset="0.78" stop-color="#c298d4"/><stop offset="1" stop-color="#ffb0d6"/></linearGradient><linearGradient id="未命名的渐变_60-2" x1="10.77" y1="10.77" x2="62.71" y2="62.71" xlink:href="#未命名的渐变_60"/></defs><g id="图层_2" data-name="图层 2"><g id="图层_1-2" data-name="图层 1"><path class="cls-1" d="M74.15,81.44a6,6,0,0,1-4.3-1.78L50.73,60.55a6.08,6.08,0,0,1,8.6-8.61L78.45,71.06a6.08,6.08,0,0,1-4.3,10.38Z"/><path class="cls-2" d="M36.74,70A33.24,33.24,0,1,1,70,36.74,33.28,33.28,0,0,1,36.74,70Zm0-51.33A18.09,18.09,0,1,0,54.82,36.74,18.12,18.12,0,0,0,36.74,18.65Z"/></g></g></svg>